<?xml version="1.0" standalone="no"?>
<!DOCTYPE svg PUBLIC "-//W3C//DTD SVG 20010904//EN"
 "http://www.w3.org/TR/2001/REC-SVG-20010904/DTD/svg10.dtd">
<svg version="1.0" xmlns="http://www.w3.org/2000/svg"
 width="438.000000pt" height="438.000000pt" viewBox="0 0 438.000000 438.000000"
 preserveAspectRatio="xMidYMid meet">
<metadata>
Created by potrace 1.14, written by Peter Selinger 2001-2017
</metadata>
<g transform="translate(0.000000,438.000000) scale(0.100000,-0.100000)"
fill="#000000" stroke="none">
<path d="M2097 4354 c-1 -1 -40 -4 -87 -8 -47 -3 -101 -9 -120 -12 -42 -6
-127 -22 -155 -28 -11 -2 -41 -9 -66 -15 -178 -41 -417 -141 -594 -249 -151
-93 -250 -170 -394 -306 -279 -265 -540 -739 -597 -1086 -3 -19 -8 -38 -10
-41 -1 -3 -8 -34 -13 -70 -36 -230 -34 -535 4 -729 12 -58 15 -76 20 -101 3
-14 16 -65 30 -114 107 -367 288 -675 558 -946 82 -81 257 -226 322 -266 11
-7 57 -35 101 -63 229 -141 533 -246 824 -284 104 -14 456 -14 545 -1 490 72
909 279 1241 612 177 178 293 335 398 538 78 150 166 388 190 515 3 14 7 34 9
45 3 11 8 40 12 65 4 25 9 54 11 65 25 124 25 509 -1 635 -3 14 -7 43 -10 65
-3 21 -10 57 -16 80 -6 22 -13 51 -16 65 -9 56 -93 291 -136 382 -40 85 -145
274 -169 303 -4 5 -38 50 -74 99 -117 156 -324 354 -494 472 -146 102 -348
203 -527 263 -67 23 -130 44 -140 46 -252 55 -330 65 -526 69 -65 1 -119 1
-120 0z"/>
</g>
</svg>
